<svg xmlns="http://www.w3.org/2000/svg" viewBox="0 0 128 128" width="128" height="128">
  <!-- Background circle -->
  <circle cx="64" cy="64" r="60" fill="#2E7D32"/>
  <circle cx="64" cy="64" r="56" fill="#388E3C"/>

  <!-- Stem -->
  <line x1="64" y1="98" x2="64" y2="58" stroke="#A5D6A7" stroke-width="5" stroke-linecap="round"/>

  <!-- Left leaf -->
  <path d="M64 78 Q36 62 38 38 Q58 48 64 78Z" fill="#66BB6A"/>
  <path d="M64 78 Q36 62 38 38" stroke="#43A047" stroke-width="1.5" fill="none"/>

  <!-- Right leaf -->
  <path d="M64 70 Q92 54 90 30 Q70 40 64 70Z" fill="#81C784"/>
  <path d="M64 70 Q92 54 90 30" stroke="#43A047" stroke-width="1.5" fill="none"/>

  <!-- Top sprout -->
  <path d="M64 58 Q64 36 64 28 Q76 34 72 50 Q68 44 64 58Z" fill="#A5D6A7"/>

  <!-- Soil line -->
  <ellipse cx="64" cy="100" rx="28" ry="6" fill="#1B5E20"/>
  <ellipse cx="64" cy="99" rx="26" ry="4" fill="#33691E"/>

  <!-- Small decorative dots (seeds) -->
  <circle cx="42" cy="104" r="3" fill="#8D6E63"/>
  <circle cx="52" cy="106" r="2.5" fill="#8D6E63"/>
  <circle cx="76" cy="106" r="2.5" fill="#8D6E63"/>
  <circle cx="86" cy="103" r="3" fill="#8D6E63"/>
</svg>
